<svg width="32" height="32" viewBox="0 0 32 32" fill="none" xmlns="http://www.w3.org/2000/svg">
<path d="M5.33594 13.3337C5.33594 8.30566 5.33594 5.79099 6.8986 4.22966C8.46127 2.66833 10.9746 2.66699 16.0026 2.66699H18.0026C23.0306 2.66699 25.5453 2.66699 27.1066 4.22966C28.6679 5.79233 28.6693 8.30566 28.6693 13.3337V18.667C28.6693 23.695 28.6693 26.2097 27.1066 27.771C25.5439 29.3323 23.0306 29.3337 18.0026 29.3337H16.0026C10.9746 29.3337 8.45994 29.3337 6.8986 27.771C5.33727 26.2083 5.33594 23.695 5.33594 18.667V13.3337Z" stroke="white" stroke-width="2" stroke-linecap="round" stroke-linejoin="round"/>
<path d="M13.0693 15.9653C12.4999 14.9733 12.2253 14.164 12.0599 13.3427C11.8146 12.1293 12.3759 10.9427 13.3039 10.1853C13.6973 9.86533 14.1466 9.97467 14.3786 10.392L14.9026 11.332C15.3173 12.076 15.5253 12.4493 15.4839 12.844C15.4439 13.2387 15.1639 13.56 14.6039 14.204L13.0693 15.9653ZM13.0693 15.9653C14.2694 18.0218 15.9808 19.7332 18.0373 20.9333M18.0373 20.9333C19.0293 21.5027 19.8386 21.7773 20.6599 21.9427C21.8733 22.188 23.0599 21.6267 23.8173 20.6987C24.1373 20.3053 24.0279 19.856 23.6106 19.624L22.6719 19.1C21.9253 18.6853 21.5533 18.4773 21.1586 18.5187C20.7639 18.5587 20.4426 18.8387 19.7986 19.3987L18.0373 20.9333ZM6.66927 8H3.33594M6.66927 16H3.33594M6.66927 24H3.33594" stroke="white" stroke-width="2" stroke-linecap="round" stroke-linejoin="round"/>
</svg>
