<svg width="32" height="32" viewBox="0 0 32 32" fill="none" xmlns="http://www.w3.org/2000/svg">
<path d="M15.9974 29.3337C8.6334 29.3337 2.66406 23.3643 2.66406 16.0003C2.66406 8.63633 8.6334 2.66699 15.9974 2.66699C23.3614 2.66699 29.3307 8.63633 29.3307 16.0003C29.3307 23.3643 23.3614 29.3337 15.9974 29.3337ZM15.9974 26.667C18.8264 26.667 21.5395 25.5432 23.5399 23.5428C25.5403 21.5424 26.6641 18.8293 26.6641 16.0003C26.6641 13.1713 25.5403 10.4582 23.5399 8.45785C21.5395 6.45747 18.8264 5.33366 15.9974 5.33366C13.1684 5.33366 10.4553 6.45747 8.45492 8.45785C6.45454 10.4582 5.33073 13.1713 5.33073 16.0003C5.33073 18.8293 6.45454 21.5424 8.45492 23.5428C10.4553 25.5432 13.1684 26.667 15.9974 26.667ZM15.9974 22.667C14.2293 22.667 12.5336 21.9646 11.2834 20.7144C10.0331 19.4641 9.33073 17.7684 9.33073 16.0003C9.33073 14.2322 10.0331 12.5365 11.2834 11.2863C12.5336 10.036 14.2293 9.33366 15.9974 9.33366C17.7655 9.33366 19.4612 10.036 20.7114 11.2863C21.9617 12.5365 22.6641 14.2322 22.6641 16.0003C22.6641 17.7684 21.9617 19.4641 20.7114 20.7144C19.4612 21.9646 17.7655 22.667 15.9974 22.667Z" fill="white"/>
</svg>
