<svg width="32" height="32" viewBox="0 0 32 32" fill="none" xmlns="http://www.w3.org/2000/svg">
<path d="M25.3307 5.33366H22.6641V4.00033C22.6641 3.6467 22.5236 3.30756 22.2735 3.05752C22.0235 2.80747 21.6844 2.66699 21.3307 2.66699C20.9771 2.66699 20.638 2.80747 20.3879 3.05752C20.1379 3.30756 19.9974 3.6467 19.9974 4.00033V5.33366H11.9974V4.00033C11.9974 3.6467 11.8569 3.30756 11.6069 3.05752C11.3568 2.80747 11.0177 2.66699 10.6641 2.66699C10.3104 2.66699 9.9713 2.80747 9.72125 3.05752C9.47121 3.30756 9.33073 3.6467 9.33073 4.00033V5.33366H6.66406C5.6032 5.33366 4.58578 5.75509 3.83564 6.50523C3.08549 7.25538 2.66406 8.27279 2.66406 9.33366V25.3337C2.66406 26.3945 3.08549 27.4119 3.83564 28.1621C4.58578 28.9122 5.6032 29.3337 6.66406 29.3337H25.3307C26.3916 29.3337 27.409 28.9122 28.1592 28.1621C28.9093 27.4119 29.3307 26.3945 29.3307 25.3337V9.33366C29.3307 8.27279 28.9093 7.25538 28.1592 6.50523C27.409 5.75509 26.3916 5.33366 25.3307 5.33366ZM26.6641 25.3337C26.6641 25.6873 26.5236 26.0264 26.2735 26.2765C26.0235 26.5265 25.6844 26.667 25.3307 26.667H6.66406C6.31044 26.667 5.9713 26.5265 5.72125 26.2765C5.47121 26.0264 5.33073 25.6873 5.33073 25.3337V16.0003H26.6641V25.3337ZM26.6641 13.3337H5.33073V9.33366C5.33073 8.98004 5.47121 8.6409 5.72125 8.39085C5.9713 8.1408 6.31044 8.00033 6.66406 8.00033H9.33073V9.33366C9.33073 9.68728 9.47121 10.0264 9.72125 10.2765C9.9713 10.5265 10.3104 10.667 10.6641 10.667C11.0177 10.667 11.3568 10.5265 11.6069 10.2765C11.8569 10.0264 11.9974 9.68728 11.9974 9.33366V8.00033H19.9974V9.33366C19.9974 9.68728 20.1379 10.0264 20.3879 10.2765C20.638 10.5265 20.9771 10.667 21.3307 10.667C21.6844 10.667 22.0235 10.5265 22.2735 10.2765C22.5236 10.0264 22.6641 9.68728 22.6641 9.33366V8.00033H25.3307C25.6844 8.00033 26.0235 8.1408 26.2735 8.39085C26.5236 8.6409 26.6641 8.98004 26.6641 9.33366V13.3337Z" fill="white"/>
</svg>
